<svg width="18" height="27" viewBox="0 0 18 27" fill="none" xmlns="http://www.w3.org/2000/svg">
<path fill-rule="evenodd" clip-rule="evenodd" d="M10.7087 1.83606C10.7087 1.00763 10.0371 0.33606 9.20866 0.33606C8.38024 0.33606 7.70866 1.00763 7.70866 1.83606V7.94799C7.70866 8.77641 8.38024 9.44799 9.20866 9.44799C10.0371 9.44799 10.7087 8.77641 10.7087 7.94799V1.83606ZM9.20866 11.8044C10.0371 11.8044 10.7087 12.4759 10.7087 13.3044V20.6135L14.8454 15.6253C15.3742 14.9876 16.3198 14.8994 16.9575 15.4282C17.5952 15.9571 17.6834 16.9027 17.1546 17.5404L10.3629 25.7301C10.0779 26.0737 9.65472 26.2726 9.2083 26.2726C8.76187 26.2726 8.33865 26.0737 8.05367 25.7301L1.26198 17.5404C0.733158 16.9027 0.821402 15.9571 1.45908 15.4282C2.09676 14.8994 3.0424 14.9876 3.57123 15.6253L7.70866 20.6144V13.3044C7.70866 12.4759 8.38024 11.8044 9.20866 11.8044Z" fill="#DADADA"/>
</svg>
