<svg width="430" height="37" viewBox="0 0 430 37" fill="none" xmlns="http://www.w3.org/2000/svg">
<path fill-rule="evenodd" clip-rule="evenodd" d="M0.00012207 37L430 37V0.790207L428.656 1.68139L427.223 2.55895L425.716 3.41135L424.137 4.23792L422.484 5.03797L420.76 5.81085L418.963 6.55596L417.095 7.27278L415.158 7.96077L413.151 8.6195L411.078 9.24862L408.939 9.84783L406.736 10.4169L404.472 10.9557L402.149 11.4641L399.77 11.9422L397.336 12.3899L394.85 12.8075L392.316 13.1951L389.735 13.5528L387.112 13.881L384.447 14.18L381.746 14.4502L379.01 14.6921L376.242 14.9061L373.446 15.0928L370.625 15.2529L367.781 15.387L364.918 15.4957L362.039 15.5799L359.146 15.6404L356.243 15.6781L353.334 15.6937L350.419 15.6884L347.504 15.663L344.59 15.6185L341.68 15.556L338.776 15.4765L335.883 15.3813L333.001 15.2713L330.134 15.1477L327.284 15.0116L324.452 14.8644L321.642 14.707L318.854 14.5407L316.092 14.3667L313.357 14.1861L310.649 14.0002L307.972 13.8101L305.325 13.6169L302.711 13.4219L300.13 13.2261L297.583 13.0306L295.072 12.8365L292.596 12.6448L290.156 12.4567L287.753 12.2732L285.386 12.0952L283.057 11.9238L280.764 11.76L278.509 11.6047L276.29 11.4588L274.107 11.3231L271.961 11.1986L269.849 11.0859L267.772 10.9857L265.729 10.8989L263.718 10.8259L261.738 10.7673L259.788 10.7236L257.867 10.6953L255.973 10.6827L254.105 10.6862L252.26 10.7059L250.437 10.7421L248.634 10.7949L246.849 10.8644L245.081 10.9504L243.326 11.053L241.583 11.172L239.85 11.3073L238.124 11.4585L236.404 11.6255L234.686 11.8078L232.968 12.005L231.249 12.2167L229.526 12.4424L227.797 12.6816L226.059 12.9337L224.311 13.1982L222.549 13.4744L220.772 13.7617L218.978 14.0594L217.164 14.367L215.329 14.6836L213.47 15.0087L211.586 15.3415L209.675 15.6815L207.734 16.0278L205.762 16.3797L203.757 16.7364L201.718 17.097L199.642 17.4607L197.527 17.8264L195.373 18.1932L193.178 18.5601L190.94 18.9261L188.657 19.2899L186.33 19.6506L183.955 20.007L181.533 20.3579L179.061 20.7021L176.541 21.0385L173.969 21.3658L171.347 21.6828L168.673 21.9883L165.947 22.281L163.168 22.5598L160.337 22.8233L157.454 23.0705L154.518 23.3L151.53 23.5107L148.49 23.7014L145.4 23.871L142.258 24.0183L139.067 24.1423L135.828 24.2418L132.54 24.3159L129.206 24.3635L125.827 24.3837L122.405 24.3756L118.94 24.3384L115.435 24.2711L111.892 24.1731L108.311 24.0436L104.697 23.8821L101.049 23.6878L97.3715 23.4602L93.6656 23.1991L89.9338 22.9039L86.1783 22.5747L82.4013 22.2111L78.605 21.8131L74.7917 21.3808L70.9634 20.9143L67.1222 20.4138L63.2703 19.8794L59.4095 19.3114L55.542 18.7103L51.6694 18.0763L47.7937 17.4099L43.9166 16.7116L40.0396 15.9819L36.1646 15.2212L32.2928 14.4301L28.4258 13.6093L24.5649 12.7592L20.7114 11.8805L16.8665 10.9737L13.0314 10.0394L9.20718 9.07827L5.39481 8.09084L1.59534 7.07771L0.00012207 6.64021V37Z" fill="#1E1E1E"/>
</svg>
